<svg width="80" height="80" viewBox="0 0 80 80" fill="none" xmlns="http://www.w3.org/2000/svg">
<path d="M40 9.93311C44.2112 9.93311 48.3169 10.8227 52.0928 12.4956L50.5361 14.0522C49.5812 15.037 49.0128 16.381 49.0127 17.7603V21.312C46.2868 19.9876 43.2338 19.2388 40 19.2388C28.5465 19.2388 19.2412 28.5441 19.2412 39.9976C19.2413 51.4509 28.5466 60.7563 40 60.7563C51.4534 60.7563 60.7587 51.4509 60.7588 39.9976C60.7588 36.7639 60.0099 33.7107 58.6855 30.9849H62.2373C63.6126 30.9847 64.9593 30.4465 65.9482 29.4575L66.46 28.9458H66.4316L67.4727 27.9038C69.1459 31.6799 70.0361 35.7859 70.0361 39.9976C70.0361 56.5659 56.5684 70.0337 40 70.0337C23.4316 70.0337 9.96395 56.5659 9.96387 39.9976C9.96387 23.6879 23.0142 10.383 39.2266 9.94482L40 9.93311ZM40.0273 24.0708C42.5122 24.0708 44.8478 24.6395 46.9424 25.6587L41.875 30.7261C41.2628 30.6019 40.6445 30.5259 39.999 30.5259C34.7822 30.526 30.5283 34.7807 30.5283 39.9976C30.5284 45.2144 34.7822 49.4691 39.999 49.4692C45.2159 49.4692 49.4706 45.2145 49.4707 39.9976C49.4707 39.3724 49.3975 38.7493 49.2793 38.1675L54.3652 33.0815C55.3848 35.1764 55.9541 37.5122 55.9541 39.9976C55.954 48.7774 48.8072 55.9233 40.0273 55.9233C31.2476 55.9232 24.1016 48.7773 24.1016 39.9976C24.1016 31.2177 31.2475 24.0709 40.0273 24.0708ZM37.7266 35.9624C37.6308 36.3554 37.584 36.7606 37.584 37.1763C37.5841 38.5806 38.1221 39.8989 39.1104 40.8872C40.0988 41.8756 41.4177 42.4146 42.8223 42.4146C43.2343 42.4145 43.6356 42.3671 44.0254 42.2729C43.2173 43.6771 41.7185 44.6362 40 44.6362C37.4566 44.6362 35.3613 42.5409 35.3613 39.9976C35.3614 38.2751 36.3239 36.755 37.7266 35.9624ZM51.834 25.7466C51.834 27.0692 52.9274 28.1625 54.25 28.1626H54.4014L44.1055 38.4585C43.7414 38.8226 43.2822 38.9917 42.8213 38.9917C42.3605 38.9916 41.902 38.8224 41.5381 38.4585C40.8372 37.7573 40.8372 36.5932 41.5381 35.8921L51.834 25.5962V25.7466ZM58.9443 10.4995C59.4854 9.98301 60.2618 9.8195 60.9326 10.1069L60.9414 10.1099C61.61 10.3725 62.0488 11.0473 62.0488 11.7778V17.9478H68.2188C68.9429 17.9478 69.5983 18.3819 69.8906 19.064C70.1795 19.7382 70.0102 20.5391 69.502 21.0474L63.5195 27.0298C63.1801 27.3692 62.7202 27.563 62.2363 27.563H55.8467C56.7514 26.6247 56.7423 25.1054 55.8174 24.1802C54.892 23.2548 53.3719 23.2456 52.4336 24.1509V17.7603C52.4337 17.2764 52.6274 16.8164 52.9668 16.4771L58.9443 10.4995ZM52.4336 24.9966L52.8262 24.604C53.5273 23.903 54.6914 23.9031 55.3926 24.604C56.0938 25.3052 56.0938 26.4702 55.3926 27.1714L55.001 27.563H54.25C53.2588 27.5629 52.4336 26.7378 52.4336 25.7466V24.9966Z" fill="url(#paint0_linear_144_2175)" stroke="#4A4A4A" stroke-width="0.6"/>
<defs>
<linearGradient id="paint0_linear_144_2175" x1="43.185" y1="5.88422" x2="11.5807" y2="70.2255" gradientUnits="userSpaceOnUse">
<stop stop-color="#4D4D4D"/>
<stop offset="1" stop-color="#262626"/>
</linearGradient>
</defs>
</svg>
