<svg width="40" height="40" viewBox="0 0 40 40" fill="none" xmlns="http://www.w3.org/2000/svg">
<path d="M3.00775 17.8126C2.9339 18.4069 3.39735 18.9316 3.9962 18.9316H8.04871C8.53514 18.9316 8.95044 18.5802 9.03099 18.1004C9.81093 13.4556 13.4556 9.81094 18.1004 9.03106C18.5801 8.95051 18.9315 8.5352 18.9315 8.04871V3.9962C18.9315 3.39735 18.4069 2.9339 17.8126 3.00775C14.0759 3.47213 10.5459 5.19995 7.87287 7.87287C5.19995 10.5459 3.47213 14.0759 3.00775 17.8126Z" fill="#EBEBEB"/>
<path d="M26.3469 28.9436C24.4563 30.2935 22.2394 31.007 19.936 31.007C14.5158 31.007 9.9297 27.1229 9.03109 21.7713C8.95054 21.2916 8.53524 20.9402 8.04881 20.9402H3.99624C3.39739 20.9402 2.93394 21.4648 3.00778 22.0591C4.06636 30.5767 11.3439 37 19.936 37C23.7637 37 27.3835 35.7576 30.4041 33.4072C30.877 33.0393 30.9204 32.3403 30.4968 31.9167L27.63 29.0499C27.2857 28.7057 26.743 28.6607 26.3469 28.9436Z" fill="#EBEBEB"/>
<path d="M21.7713 9.03108C27.1228 9.92969 31.007 14.5158 31.007 19.936C31.007 22.2394 30.2935 24.4562 28.9437 26.3468C28.6608 26.743 28.7057 27.2857 29.05 27.6299L31.9169 30.4968C32.3405 30.9204 33.0394 30.8769 33.4073 30.4042C35.7576 27.3836 37 23.7637 37 19.936C37 11.3439 30.5768 4.06635 22.0591 3.00776C21.4649 2.93392 20.9401 3.39737 20.9401 3.99622V8.04873C20.9402 8.53522 21.2915 8.95053 21.7713 9.03108Z" fill="#EBEBEB"/>
<path d="M20.5992 13.0913H19.2703C18.7202 13.0913 18.2742 13.5373 18.2742 14.0874V25.7083H21.5953V14.0874C21.5953 13.5373 21.1493 13.0913 20.5992 13.0913Z" fill="#EBEBEB"/>
<path d="M23.5875 25.7083H25.9125C26.4626 25.7083 26.9086 25.2624 26.9086 24.7122V16.7436C26.9086 16.1935 26.4626 15.7475 25.9125 15.7475H23.5875V25.7083Z" fill="#EBEBEB"/>
<path d="M16.282 18.4037H13.9595C13.4094 18.4037 12.9634 18.8497 12.9634 19.3998V24.7122C12.9634 25.2624 13.4094 25.7083 13.9595 25.7083H16.282V18.4037Z" fill="#EBEBEB"/>
</svg>
