<svg width="40" height="40" viewBox="0 0 40 40" fill="none" xmlns="http://www.w3.org/2000/svg">
<path fill-rule="evenodd" clip-rule="evenodd" d="M37.5 11.1406C37.5 8.37903 35.2616 6.14062 32.5 6.14062C26.2452 6.14062 13.7548 6.14062 7.5 6.14062C4.7384 6.14062 2.5 8.37903 2.5 11.1406V28.6406C2.5 31.4022 4.7384 33.6406 7.5 33.6406H32.5C35.2616 33.6406 37.5 31.4022 37.5 28.6406V11.1406ZM13.75 26.2494H8.75C8.06 26.2494 7.5 26.8094 7.5 27.4994C7.5 28.1894 8.06 28.7494 8.75 28.7494H13.75C14.44 28.7494 15 28.1894 15 27.4994C15 26.8094 14.44 26.2494 13.75 26.2494ZM31.25 26.2494H18.8524C18.1624 26.2494 17.6024 26.8094 17.6024 27.4994C17.6024 28.1894 18.1624 28.7494 18.8524 28.7494H31.25C31.94 28.7494 32.5 28.1894 32.5 27.4994C32.5 26.8094 31.94 26.2494 31.25 26.2494ZM8.75 22.4994H20C20.69 22.4994 21.25 21.9394 21.25 21.2494C21.25 20.5594 20.69 19.9994 20 19.9994H8.75C8.06 19.9994 7.5 20.5594 7.5 21.2494C7.5 21.9394 8.06 22.4994 8.75 22.4994ZM24.9032 22.4994H31.25C31.94 22.4994 32.5 21.9394 32.5 21.2494C32.5 20.5594 31.94 19.9994 31.25 19.9994H24.9032C24.2132 19.9994 23.6532 20.5594 23.6532 21.2494C23.6532 21.9394 24.2132 22.4994 24.9032 22.4994Z" fill="#EBEBEB"/>
</svg>
