<svg width="80" height="80" viewBox="0 0 80 80" fill="none" xmlns="http://www.w3.org/2000/svg">
<path d="M10.0005 60.2998H30.0005C31.6755 60.3 33.0337 61.6575 33.0337 63.334C33.0335 65.0103 31.6754 66.367 30.0005 66.3672H10.0005C8.32541 66.3672 6.96652 65.0104 6.96631 63.334C6.96631 61.6574 8.32528 60.2998 10.0005 60.2998ZM57.855 11.1885C58.8326 10.2108 60.353 10.0202 61.5376 10.7188C62.6541 11.3753 63.2236 12.6619 62.978 13.916L62.9175 14.167L57.4653 33.25L57.356 33.6328H70.0005C71.2263 33.633 72.3344 34.3727 72.8022 35.5049C73.2732 36.6397 73.013 37.9436 72.145 38.8115L45.478 65.4775C44.8914 66.0641 44.116 66.3661 43.3325 66.3662C42.743 66.3662 42.1504 66.1943 41.6333 65.8447C40.4293 65.0302 39.9735 63.4755 40.5464 62.1396L48.5542 43.4521L48.7329 43.0332H33.3335C32.1845 43.0331 31.1405 42.3835 30.6274 41.3691L30.5317 41.1611C30.0622 40.0268 30.3213 38.7232 31.189 37.8555L57.855 11.1885ZM13.3335 43.6328H23.3335C25.0086 43.6328 26.3675 44.9896 26.3677 46.666C26.3677 48.3426 25.0087 49.7002 23.3335 49.7002H13.3335C11.6584 49.7001 10.3003 48.3426 10.3003 46.666C10.3005 44.9896 11.6585 43.6329 13.3335 43.6328ZM16.6665 26.9668H26.6665C28.3416 26.9668 29.6997 28.3249 29.6997 30C29.6997 31.6751 28.3416 33.0332 26.6665 33.0332H16.6665C14.9914 33.0332 13.6333 31.6751 13.6333 30C13.6333 28.3249 14.9914 26.9668 16.6665 26.9668ZM20.0005 10.2998H43.3335C45.0102 10.2998 46.3677 11.6579 46.3677 13.333C46.3676 15.0081 45.01 16.3662 43.3335 16.3662H20.0005C18.3254 16.3662 16.9665 15.0088 16.9663 13.334C16.9663 11.6589 18.3254 10.2998 20.0005 10.2998Z" fill="url(#paint0_linear_144_2167)" stroke="#4A4A4A" stroke-width="0.6"/>
<defs>
<linearGradient id="paint0_linear_144_2167" x1="43.5" y1="6.5" x2="17" y2="70" gradientUnits="userSpaceOnUse">
<stop stop-color="#4D4D4D"/>
<stop offset="1" stop-color="#262626"/>
</linearGradient>
</defs>
</svg>
