<svg width="20" height="20" viewBox="0 0 20 20" fill="none" xmlns="http://www.w3.org/2000/svg">
<g clip-path="url(#clip0_144_3265)">
<path d="M8.10352 0.464844C9.98939 0.0897544 11.9443 0.281748 13.7207 1.01758C15.4972 1.75343 17.0157 2.99984 18.084 4.59863C19.1522 6.19742 19.7227 8.07718 19.7227 10C19.7227 12.5785 18.6983 15.0517 16.875 16.875C15.0517 18.6983 12.5785 19.7227 10 19.7227C8.07717 19.7227 6.19742 19.1522 4.59863 18.084C2.99983 17.0157 1.75343 15.4972 1.01758 13.7207C0.281747 11.9443 0.0897536 9.98939 0.464844 8.10352C0.839978 6.21759 1.76532 4.48468 3.125 3.125C4.48468 1.76532 6.21759 0.839978 8.10352 0.464844ZM14.9199 5.8291C14.5331 5.8291 14.1614 5.98253 13.8877 6.25586V6.25684L8.31836 11.8242L6.64062 10.1465L6.5332 10.0537C6.27474 9.8498 5.9531 9.73892 5.62109 9.74219C5.24178 9.74602 4.8786 9.89777 4.61035 10.166C4.34212 10.4343 4.19033 10.7974 4.18652 11.1768C4.18279 11.5562 4.32782 11.9227 4.59082 12.1963L7.25195 14.8574L7.25977 14.8643C7.55783 15.1225 7.93958 15.2646 8.33398 15.2646C8.72819 15.2646 9.10928 15.1224 9.40723 14.8643L9.41504 14.8574L15.9512 8.32129C16.0867 8.18587 16.1942 8.02463 16.2676 7.84766C16.3409 7.67066 16.3788 7.48065 16.3789 7.28906C16.3789 7.09733 16.341 6.90663 16.2676 6.72949C16.1942 6.55254 16.0867 6.39127 15.9512 6.25586C15.6775 5.98265 15.3066 5.82923 14.9199 5.8291Z" fill="#999999" stroke="#4D4D4D" stroke-width="0.555556"/>
</g>
<defs>
<clipPath id="clip0_144_3265">
<rect width="20" height="20" fill="white"/>
</clipPath>
</defs>
</svg>
