<svg width="40" height="40" viewBox="0 0 40 40" fill="none" xmlns="http://www.w3.org/2000/svg">
<path fill-rule="evenodd" clip-rule="evenodd" d="M36.414 10.8381C36.414 8.91411 35.6505 7.06952 34.29 5.70899C32.9294 4.34845 31.0848 3.58496 29.1608 3.58496H10.8371C8.91313 3.58496 7.06855 4.34845 5.70801 5.70899C4.34747 7.06952 3.58398 8.91411 3.58398 10.8381V29.1618C3.58398 31.0858 4.34747 32.9304 5.70801 34.2909C7.06855 35.6515 8.91313 36.415 10.8371 36.415H29.1608C31.0848 36.415 32.9294 35.6515 34.29 34.2909C35.6505 32.9304 36.414 31.0858 36.414 29.1618V10.8381ZM20.7442 14.141L17.0794 25.1352C16.8809 25.7353 17.2046 26.3843 17.8047 26.5843C18.4048 26.7828 19.0538 26.4591 19.2538 25.859L22.9186 14.8647C23.1171 14.2646 22.7934 13.6157 22.1933 13.4156C21.5931 13.2171 20.9442 13.5408 20.7442 14.141ZM24.6868 17.1445L27.5407 20L24.6868 22.8554C24.2394 23.3013 24.2394 24.0281 24.6868 24.474C25.1327 24.9214 25.8595 24.9214 26.3054 24.474L29.9701 20.8093C30.4175 20.3619 30.4175 19.6381 29.9701 19.1907L26.3054 15.5259C25.8595 15.0785 25.1327 15.0785 24.6868 15.5259C24.2394 15.9718 24.2394 16.6986 24.6868 17.1445ZM13.6926 15.5259L10.0278 19.1907C9.58042 19.6381 9.58042 20.3619 10.0278 20.8093L13.6926 24.474C14.1384 24.9214 14.8653 24.9214 15.3112 24.474C15.7586 24.0281 15.7586 23.3013 15.3112 22.8554L12.4572 20L15.3112 17.1445C15.7586 16.6986 15.7586 15.9718 15.3112 15.5259C14.8653 15.0785 14.1384 15.0785 13.6926 15.5259Z" fill="#DBDBDB"/>
</svg>
