<svg width="54" height="54" viewBox="0 0 54 54" fill="none" xmlns="http://www.w3.org/2000/svg">
<path d="M19.6031 19.481H33.9602C34.2632 19.481 34.5018 19.2423 34.5018 18.9394V4.04062C34.5018 3.73765 34.2632 3.49902 33.9602 3.49902H4.16269C3.85972 3.49902 3.62109 3.73774 3.62109 4.04062V33.8656C3.62109 34.1686 3.85981 34.4072 4.16269 34.4072H19.0615C19.3644 34.4072 19.6031 34.1685 19.6031 33.8656V19.481ZM49.8412 19.6095H34.9425C34.6395 19.6095 34.4009 19.8482 34.4009 20.1511V34.5082H20.0345C19.7315 34.5082 19.4929 34.747 19.4929 35.0498V49.9486C19.4929 50.2516 19.7316 50.4902 20.0345 50.4902H49.8595C50.1625 50.4902 50.4011 50.2515 50.4011 49.9486V20.1511C50.3828 19.8574 50.1441 19.6095 49.8412 19.6095Z" fill="#EBEBEB"/>
</svg>
