<svg width="54" height="54" viewBox="0 0 54 54" fill="none" xmlns="http://www.w3.org/2000/svg">
<path d="M14.5917 16.6152C15.2481 15.952 15.2414 14.8838 14.5799 14.2274L10.3814 10.0728C9.72492 9.42138 8.66348 9.42138 8.00873 10.0728L3.81023 14.2274C3.14704 14.8838 3.14029 15.952 3.79673 16.6135C4.12579 16.9476 4.56117 17.1147 4.99654 17.1147C5.42517 17.1147 5.85548 16.9527 6.18286 16.627L7.50754 15.3158V21.0972C7.50754 22.0287 8.26186 22.7847 9.19504 22.7847C10.1282 22.7847 10.8825 22.0287 10.8825 21.0972V15.3175L12.2055 16.627C12.867 17.2834 13.9386 17.275 14.5917 16.6152Z" fill="#EBEBEB"/>
<path d="M50.1869 14.2274L45.9884 10.0728C45.332 9.42138 44.2705 9.42138 43.6158 10.0728L39.419 14.2274C38.7558 14.8838 38.7507 15.952 39.4055 16.6152C40.0602 17.2767 41.1301 17.2834 41.7916 16.627L43.1146 15.3175V21.0972C43.1146 22.0287 43.8689 22.7847 44.8021 22.7847C45.7353 22.7847 46.4896 22.0287 46.4896 21.0972V15.3158L47.8143 16.627C48.1417 16.9527 48.572 17.1147 49.0006 17.1147C49.436 17.1147 49.8713 16.9476 50.2004 16.6135C50.8568 15.952 50.8501 14.8838 50.1869 14.2274Z" fill="#EBEBEB"/>
<path d="M23.9869 8.72908L25.3099 7.41958V13.1993C25.3099 14.1308 26.0642 14.8868 26.9974 14.8868C27.9306 14.8868 28.6849 14.1308 28.6849 13.1993V7.41958L30.0079 8.72908C30.3353 9.05477 30.7656 9.21846 31.1942 9.21846C31.6296 9.21846 32.0633 9.05139 32.394 8.71896C33.0505 8.05577 33.0437 6.98758 32.3805 6.33283L28.1837 2.17652C27.5273 1.52514 26.4658 1.52514 25.8111 2.17652L21.6143 6.33114C20.9511 6.98589 20.946 8.05408 21.6008 8.71727C22.2572 9.37877 23.3254 9.38721 23.9869 8.72908Z" fill="#EBEBEB"/>
<path d="M26.75 20.9998C23.8327 20.9998 20.981 21.8648 18.5553 23.4856C16.1297 25.1063 14.2392 27.41 13.1228 30.1052C12.0064 32.8004 11.7143 35.7661 12.2834 38.6273C12.8526 41.4886 14.2574 44.1168 16.3202 46.1796C18.383 48.2424 21.0112 49.6472 23.8724 50.2163C26.7336 50.7855 29.6994 50.4934 32.3946 49.377C35.0898 48.2606 37.3934 46.37 39.0142 43.9444C40.6349 41.5188 41.5 38.667 41.5 35.7498C41.5 33.8128 41.1185 31.8947 40.3772 30.1052C39.636 28.3156 38.5495 26.6896 37.1798 25.3199C35.8102 23.9503 34.1841 22.8638 32.3946 22.1225C30.605 21.3813 28.687 20.9998 26.75 20.9998ZM29.7 31.4264H30.4067C30.6675 31.4264 30.9176 31.53 31.102 31.7144C31.2864 31.8988 31.39 32.1489 31.39 32.4097C31.39 32.6705 31.2864 32.9206 31.102 33.105C30.9176 33.2894 30.6675 33.393 30.4067 33.393H29.9386C29.8271 34.5463 29.2905 35.6168 28.4332 36.3962C27.5759 37.1756 26.4592 37.6081 25.3006 37.6096H24.9879L28.7298 41.5547C28.8222 41.6477 28.8951 41.7582 28.9442 41.8797C28.9932 42.0012 29.0175 42.1313 29.0156 42.2624C29.0137 42.3934 28.9856 42.5228 28.9329 42.6428C28.8803 42.7629 28.8042 42.8712 28.7091 42.9614C28.614 43.0516 28.5018 43.1218 28.3792 43.1681C28.2565 43.2143 28.1259 43.2355 27.9949 43.2305C27.8639 43.2256 27.7353 43.1944 27.6165 43.139C27.4977 43.0836 27.3912 43.0049 27.3033 42.9078L21.9867 37.3028C21.8545 37.1633 21.766 36.9881 21.7323 36.7988C21.6985 36.6096 21.721 36.4146 21.7969 36.238C21.8728 36.0614 21.9988 35.9109 22.1593 35.8052C22.3198 35.6994 22.5078 35.643 22.7 35.6429H25.3006C25.9367 35.6414 26.5518 35.4146 27.0366 35.0028C27.5215 34.5909 27.8447 34.0206 27.949 33.393H22.7439C22.4831 33.393 22.233 33.2894 22.0486 33.105C21.8642 32.9206 21.7606 32.6705 21.7606 32.4097C21.7606 32.1489 21.8642 31.8988 22.0486 31.7144C22.233 31.53 22.4831 31.4264 22.7439 31.4264H27.5216C27.2748 31.0659 26.9439 30.771 26.5574 30.5672C26.171 30.3634 25.7407 30.2569 25.3039 30.2569H22.7033C22.4425 30.2569 22.1924 30.1533 22.0079 29.9688C21.8235 29.7844 21.7199 29.5343 21.7199 29.2735C21.7199 29.0127 21.8235 28.7626 22.0079 28.5782C22.1924 28.3938 22.4425 28.2902 22.7033 28.2902H25.3039C25.3406 28.2902 25.3753 28.2948 25.4114 28.2954H30.41C30.6708 28.2954 30.9209 28.399 31.1053 28.5834C31.2897 28.7679 31.3933 29.018 31.3933 29.2788C31.3933 29.5396 31.2897 29.7897 31.1053 29.9741C30.9209 30.1585 30.6708 30.2621 30.41 30.2621H29.1041C29.3577 30.62 29.5595 31.012 29.7033 31.4264H29.7Z" fill="#EBEBEB"/>
</svg>
