<svg width="80" height="80" viewBox="0 0 80 80" fill="none" xmlns="http://www.w3.org/2000/svg">
<path d="M50 30.3008H65C67.5837 30.3008 69.7001 32.4171 69.7002 35V65C69.7001 67.5837 67.5837 69.7001 65 69.7002H50C47.4171 69.7002 45.3009 67.5837 45.3008 65V35C45.3008 32.417 47.417 30.3008 50 30.3008ZM15 10.2998H49.999C52.5828 10.2998 54.6991 12.4142 54.6992 15V24.7002H49.999C44.3181 24.7004 39.6995 29.3183 39.6992 34.999V69.6992H15C12.4163 69.6991 10.2998 67.5828 10.2998 64.999V15C10.2999 12.4142 12.4163 10.2999 15 10.2998ZM57.5 59.7002C55.9529 59.7002 54.7002 60.9521 54.7002 62.5C54.7002 64.048 55.9529 65.2998 57.5 65.2998C59.0478 65.2998 60.3008 64.048 60.3008 62.5C60.3007 60.952 59.0477 59.7002 57.5 59.7002ZM27.5 59.7002C25.953 59.7002 24.7004 60.9513 24.7002 62.499C24.7002 64.047 25.9529 65.2988 27.5 65.2988H32.5C34.0478 65.2987 35.2998 64.0468 35.2998 62.499C35.2996 60.9514 34.0476 59.7003 32.5 59.7002H27.5Z" fill="url(#paint0_linear_144_2181)" stroke="#4A4A4A" stroke-width="0.6"/>
<defs>
<linearGradient id="paint0_linear_144_2181" x1="43.1498" y1="6.29415" x2="11.9189" y2="69.9049" gradientUnits="userSpaceOnUse">
<stop stop-color="#4D4D4D"/>
<stop offset="1" stop-color="#262626"/>
</linearGradient>
</defs>
</svg>
