<svg width="80" height="80" viewBox="0 0 80 80" fill="none" xmlns="http://www.w3.org/2000/svg">
<path d="M60.9531 59.6357L69.3584 69.7002H56.2129L51.2373 59.6357H60.9531ZM46.6377 59.6357L51.6133 69.7002H28.3867L33.3633 59.6357H46.6377ZM28.7627 59.6357L23.7871 69.7002H10.6416L19.0459 59.6357H28.7627ZM62.2109 41.458H59.0361V55.5205H50.8467V35.5391L54.0615 31.6816L62.2109 41.458ZM51.4941 20.2471H46.7314V55.5205H33.2686V20.2471H28.5059L40 10.3945L51.4941 20.2471ZM29.1533 35.5391V55.5205H20.9639V41.458H17.7891L25.9375 31.6816L29.1533 35.5391Z" fill="#ACACAC"/>
<path d="M60.9531 59.6357L69.3584 69.7002H56.2129L51.2373 59.6357H60.9531ZM46.6377 59.6357L51.6133 69.7002H28.3867L33.3633 59.6357H46.6377ZM28.7627 59.6357L23.7871 69.7002H10.6416L19.0459 59.6357H28.7627ZM62.2109 41.458H59.0361V55.5205H50.8467V35.5391L54.0615 31.6816L62.2109 41.458ZM51.4941 20.2471H46.7314V55.5205H33.2686V20.2471H28.5059L40 10.3945L51.4941 20.2471ZM29.1533 35.5391V55.5205H20.9639V41.458H17.7891L25.9375 31.6816L29.1533 35.5391Z" fill="url(#paint0_linear_144_2189)"/>
<path d="M60.9531 59.6357L69.3584 69.7002H56.2129L51.2373 59.6357H60.9531ZM46.6377 59.6357L51.6133 69.7002H28.3867L33.3633 59.6357H46.6377ZM28.7627 59.6357L23.7871 69.7002H10.6416L19.0459 59.6357H28.7627ZM62.2109 41.458H59.0361V55.5205H50.8467V35.5391L54.0615 31.6816L62.2109 41.458ZM51.4941 20.2471H46.7314V55.5205H33.2686V20.2471H28.5059L40 10.3945L51.4941 20.2471ZM29.1533 35.5391V55.5205H20.9639V41.458H17.7891L25.9375 31.6816L29.1533 35.5391Z" stroke="#4A4A4A" stroke-width="0.6"/>
<defs>
<linearGradient id="paint0_linear_144_2189" x1="43.1495" y1="6.29415" x2="11.9184" y2="69.9047" gradientUnits="userSpaceOnUse">
<stop stop-color="#4D4D4D"/>
<stop offset="1" stop-color="#262626"/>
</linearGradient>
</defs>
</svg>
