<svg width="32" height="32" viewBox="0 0 32 32" fill="none" xmlns="http://www.w3.org/2000/svg">
<path d="M25.5728 9.50961L19.966 3.76761C19.2822 3.08405 18.325 2.6739 17.231 2.6739H9.16256C7.11127 2.53718 5.3335 4.31448 5.3335 6.36519V25.5052C5.3335 27.5558 6.97452 29.3332 9.16256 29.3332H22.8378C24.8891 29.3332 26.6668 27.6926 26.6668 25.5052V12.1072C26.6668 11.1502 26.2566 10.1932 25.5728 9.50961ZM11.8976 13.4744H16.0002C16.5472 13.4744 17.0942 13.8845 17.0942 14.5681C17.0942 15.2516 16.6839 15.6617 16.0002 15.6617H11.8976C11.3506 15.6617 10.8036 15.2516 10.8036 14.5681C10.8036 13.8845 11.3506 13.4744 11.8976 13.4744ZM20.1027 21.1304H11.8976C11.3506 21.1304 10.8036 20.7202 10.8036 20.0366C10.8036 19.353 11.2138 18.9429 11.8976 18.9429H20.1027C20.6498 18.9429 21.1967 19.353 21.1967 20.0366C21.1967 20.7202 20.6498 21.1304 20.1027 21.1304Z" fill="#ACACAC"/>
</svg>
