<svg width="54" height="54" viewBox="0 0 54 54" fill="none" xmlns="http://www.w3.org/2000/svg">
<path d="M6.1106 10.5598C6.79316 10.5598 7.43277 10.393 8.0112 10.1173L12.3497 14.4556C13.0023 13.684 13.7145 12.9724 14.4561 12.3495L10.1176 8.01095C10.3932 7.43252 10.5601 6.79291 10.5601 6.11035C10.5601 3.65697 8.56398 1.66089 6.1106 1.66089C3.65721 1.66089 1.66113 3.65697 1.66113 6.11035C1.66113 8.56374 3.65721 10.5598 6.1106 10.5598Z" fill="#EBEBEB"/>
<path d="M47.8367 43.387C47.1542 43.387 46.5146 43.5539 45.9361 43.8295L41.5976 39.491C40.945 40.2625 40.2328 40.9741 39.4912 41.5974L43.8304 45.9359C43.5544 46.5143 43.3873 47.1539 43.3873 47.8365C43.3873 50.2899 45.3834 52.286 47.8367 52.286C50.2901 52.286 52.2862 50.2899 52.2862 47.8365C52.2862 45.3831 50.2901 43.387 47.8367 43.387Z" fill="#EBEBEB"/>
<path d="M37.3256 28.4565C37.1476 33.3213 36.05 38.275 33.9736 41.6863C39.046 39.2836 42.6946 34.2999 43.2285 28.4565H37.3256Z" fill="#EBEBEB"/>
<path d="M16.6207 25.4902C16.7987 20.6255 17.8962 15.6718 19.9727 12.2605C14.9003 14.6632 11.2517 19.6466 10.7178 25.4902H16.6207Z" fill="#EBEBEB"/>
<path d="M43.2285 25.4902C42.6946 19.6466 39.046 14.6632 33.9736 12.2605C36.05 15.6718 37.1476 20.6255 37.3256 25.4902H43.2285Z" fill="#EBEBEB"/>
<path d="M10.7178 28.4565C11.2517 34.2999 14.9003 39.2836 19.9727 41.6863C17.8962 38.275 16.7987 33.3213 16.6207 28.4565H10.7178Z" fill="#EBEBEB"/>
<path d="M34.3591 25.4902C34.0625 18.0448 31.4818 10.6587 26.973 10.6587C22.4642 10.6587 19.8835 18.0448 19.5869 25.4902H34.3591Z" fill="#EBEBEB"/>
<path d="M19.5869 28.4565C19.8835 35.902 22.4642 43.2881 26.973 43.2881C31.4818 43.2881 34.0625 35.902 34.3591 28.4565H19.5869Z" fill="#EBEBEB"/>
<path d="M41.5976 14.4556L45.9361 10.1173C46.5146 10.393 47.1542 10.5598 47.8367 10.5598C50.2901 10.5598 52.2862 8.56374 52.2862 6.11035C52.2862 3.65697 50.2901 1.66089 47.8367 1.66089C45.3834 1.66089 43.3873 3.65697 43.3873 6.11035C43.3873 6.79291 43.5541 7.43252 43.8297 8.01095L39.4912 12.3495C40.2328 12.9724 40.945 13.684 41.5976 14.4556Z" fill="#EBEBEB"/>
<path d="M12.3497 39.491L8.0112 43.8295C7.43277 43.5539 6.79316 43.387 6.1106 43.387C3.65721 43.387 1.66113 45.3831 1.66113 47.8365C1.66113 50.2899 3.65721 52.286 6.1106 52.286C8.56398 52.286 10.5601 50.2899 10.5601 47.8365C10.5601 47.1539 10.3929 46.5143 10.117 45.9359L14.4561 41.5974C13.7145 40.9741 13.0023 40.2625 12.3497 39.491Z" fill="#EBEBEB"/>
</svg>
