<svg width="32" height="32" viewBox="0 0 32 32" fill="none" xmlns="http://www.w3.org/2000/svg">
<rect width="32" height="32" rx="16" fill="#D8D8D8"/>
<g clip-path="url(#clip0_144_2635)">
<path d="M19.2001 9.24414H12.089C10.1336 9.24414 8.53345 10.8436 8.53345 12.7997V19.9108C8.53345 21.8662 10.1336 23.4664 12.089 23.4664H19.2001C21.1555 23.4664 22.7557 21.8662 22.7557 19.9108V12.7997C22.7557 10.8436 21.1555 9.24414 19.2001 9.24414ZM15.6446 19.3181C14.0079 19.3181 12.6815 17.9912 12.6815 16.3553C12.6815 14.7186 14.0079 13.3922 15.6446 13.3922C17.2805 13.3922 18.6076 14.7186 18.6076 16.3553C18.6076 17.9912 17.2805 19.3181 15.6446 19.3181ZM19.4965 13.3922C19.0051 13.3922 18.6076 12.9942 18.6076 12.5033C18.6076 12.0125 19.0051 11.6145 19.4965 11.6145C19.9879 11.6145 20.3854 12.0125 20.3854 12.5033C20.3854 12.9942 19.9879 13.3922 19.4965 13.3922Z" fill="#212121"/>
</g>
<defs>
<clipPath id="clip0_144_2635">
<rect width="14.2222" height="14.2222" fill="white" transform="translate(8.53345 9.24414)"/>
</clipPath>
</defs>
</svg>
