<svg width="32" height="32" viewBox="0 0 32 32" fill="none" xmlns="http://www.w3.org/2000/svg">
<path d="M15.2383 5C12.302 5.16854 9.54846 6.30955 7.35059 8.26834L10.7497 11.6674C12.0289 10.6025 13.5821 9.95896 15.2383 9.80763V5Z" fill="#ACACAC"/>
<path d="M9.67205 12.7438L6.273 9.34473C4.31253 11.542 3.1701 14.2958 3.00049 17.2328H7.80832C7.96067 15.5762 8.60559 14.0229 9.67205 12.7438Z" fill="#ACACAC"/>
<path d="M24.1914 17.2328H28.9992C28.8296 14.2958 27.6872 11.542 25.7267 9.34473L22.3276 12.7438C23.3941 14.0228 24.039 15.5762 24.1914 17.2328Z" fill="#ACACAC"/>
<path d="M24.1907 18.7568C24.0839 19.93 23.7491 20.9086 23.3532 21.6935C23.7394 22.2892 24.0615 22.7927 24.2743 23.127C24.8537 24.0376 24.7254 25.2065 23.9623 25.9697C23.777 26.155 23.5653 26.3043 23.3359 26.4147L24.1276 27.2064C24.2766 27.3553 24.4719 27.4298 24.6671 27.4298C24.8624 27.4298 25.0577 27.3553 25.2066 27.2064C27.4879 24.9253 28.8181 21.9488 29.0002 18.7568H24.1907Z" fill="#ACACAC"/>
<path d="M7.80951 18.7568H3C3.18205 21.9488 4.51227 24.9253 6.79352 27.2064C6.94252 27.3554 7.13777 27.4299 7.33303 27.4299C7.52828 27.4299 7.72359 27.3553 7.87258 27.2064L10.1837 24.8951C10.4817 24.5971 10.4817 24.114 10.1837 23.816C9.58061 23.2129 8.06138 21.5243 7.80951 18.7568Z" fill="#ACACAC"/>
<path d="M24.6494 8.26834C22.4516 6.3095 19.698 5.16854 16.7617 5V9.80763C18.4179 9.95896 19.9712 10.6025 21.2503 11.6674L24.6494 8.26834Z" fill="#ACACAC"/>
<path d="M17.6927 16.3151C16.7595 15.3819 15.241 15.3819 14.3078 16.3151C13.3746 17.2484 13.3746 18.7668 14.3078 19.7C15.4868 20.879 21.2807 24.5784 21.9375 24.9963C22.2387 25.188 22.6326 25.1448 22.8851 24.8923C23.1375 24.6399 23.1808 24.246 22.9891 23.9447C22.5711 23.288 18.8716 17.494 17.6927 16.3151Z" fill="#ACACAC"/>
</svg>
