<svg width="40" height="40" viewBox="0 0 40 40" fill="none" xmlns="http://www.w3.org/2000/svg">
<g clip-path="url(#clip0_144_3803)">
<path fill-rule="evenodd" clip-rule="evenodd" d="M20 40C31.0457 40 40 31.0457 40 20C40 8.9543 31.0457 0 20 0C8.9543 0 0 8.9543 0 20C0 31.0457 8.9543 40 20 40ZM20 5.83328C22.3181 5.83328 24.2148 7.72992 24.2148 10.048V20.7151C24.2148 23.0332 22.3181 24.9298 20 24.9298C17.6819 24.9298 15.7852 23.0332 15.7852 20.7151V10.048C15.7852 7.72992 17.6819 5.83328 20 5.83328ZM21.3333 34.1666C21.3333 34.903 20.7363 35.4999 19.9999 35.4999C19.2636 35.4999 18.6666 34.903 18.6666 34.1666V30.3477C16.5218 30.0506 14.5952 29.048 13.1312 27.5839C11.3693 25.822 10.2757 23.3907 10.2757 20.7151V18.1998C10.2757 17.4634 10.8727 16.8664 11.6091 16.8664C12.3455 16.8664 12.9424 17.4634 12.9424 18.1998V20.7151C12.9424 22.6545 13.7368 24.4187 15.0166 25.6985C16.2965 26.9784 18.0606 27.7727 20 27.7727C21.9395 27.7727 23.7037 26.9784 24.9834 25.6985C26.2632 24.4187 27.0577 22.6545 27.0577 20.7151V18.1998C27.0577 17.4634 27.6546 16.8664 28.391 16.8664C29.1274 16.8664 29.7243 17.4634 29.7243 18.1998V20.7151C29.7243 23.3907 28.6307 25.822 26.8688 27.5839C25.4047 29.048 23.478 30.0505 21.3333 30.3477V34.1666Z" fill="#EBEBEB"/>
</g>
<defs>
<clipPath id="clip0_144_3803">
<rect width="40" height="40" fill="white"/>
</clipPath>
</defs>
</svg>
