<svg width="32" height="32" viewBox="0 0 32 32" fill="none" xmlns="http://www.w3.org/2000/svg">
<path d="M20.3331 3H5.16676C3.97531 3 3 3.97436 3 5.16676V26.8331C3 28.0245 3.97531 28.9998 5.16676 28.9998H15.9999V13.8332C15.9999 11.4432 17.9431 9.49996 20.3331 9.49996H22.4999V5.16676C22.4999 3.97436 21.5246 3 20.3331 3ZM12.7499 26.8331H10.5832C9.98454 26.8331 9.49996 26.3488 9.49996 25.7499C9.49996 25.1509 9.98454 24.6666 10.5832 24.6666H12.7499C13.3489 24.6666 13.8332 25.1509 13.8332 25.7499C13.8332 26.3488 13.3489 26.8331 12.7499 26.8331Z" fill="#ACACAC"/>
<path d="M26.8334 11.667H20.3334C19.1423 11.667 18.167 12.6423 18.167 13.8334V26.8334C18.167 28.0248 19.1423 29.0001 20.3334 29.0001H26.8334C28.0248 29.0001 29.0002 28.0248 29.0002 26.8334V13.8334C29.0002 12.6423 28.0248 11.667 26.8334 11.667ZM23.5834 26.8334C22.9848 26.8334 22.5002 26.3491 22.5002 25.7501C22.5002 25.1512 22.9848 24.6669 23.5834 24.6669C24.1824 24.6669 24.667 25.1512 24.667 25.7501C24.667 26.3491 24.1824 26.8334 23.5834 26.8334Z" fill="#ACACAC"/>
</svg>
