<svg width="54" height="54" viewBox="0 0 54 54" fill="none" xmlns="http://www.w3.org/2000/svg">
<path d="M33.2506 4C25.4037 4 18.818 9.39634 17 16.6802C18.3028 16.355 19.6658 16.1814 21.0692 16.1814C30.3196 16.1814 37.8186 23.6804 37.8186 32.9308C37.8186 34.3344 37.645 35.6972 37.3198 37C44.6037 35.182 50 28.5964 50 20.7494C50 11.4991 42.5009 4 33.2506 4Z" fill="#EBEBEB"/>
<path d="M32.9309 37.8186C23.6804 37.8186 16.1815 30.3196 16.1815 21.0692C16.1815 19.6656 16.3551 18.3028 16.6803 17C9.39634 18.818 4 25.4036 4 33.2506C4 42.5009 11.4991 50 20.7494 50C28.5963 50 35.182 44.6037 37 37.3198C35.6972 37.645 34.3343 37.8186 32.9309 37.8186Z" fill="#EBEBEB"/>
</svg>
