<svg width="40" height="40" viewBox="0 0 40 40" fill="none" xmlns="http://www.w3.org/2000/svg">
<path fill-rule="evenodd" clip-rule="evenodd" d="M36.25 13.3333V30.8333C36.25 32.0483 35.7667 33.215 34.9083 34.075C34.0483 34.9333 32.8817 35.4167 31.6667 35.4167H8.33333C7.11833 35.4167 5.95167 34.9333 5.09167 34.075C4.23333 33.215 3.75 32.0483 3.75 30.8333V13.3333C3.75 12.1183 4.23333 10.9517 5.09167 10.0917C5.95167 9.23333 7.11833 8.75 8.33333 8.75H31.6667C32.8817 8.75 34.0483 9.23333 34.9083 10.0917C35.7667 10.9517 36.25 12.1183 36.25 13.3333ZM11.6667 25.8333C11.6667 26.5233 12.2267 27.0833 12.9167 27.0833C13.6067 27.0833 14.1667 26.5233 14.1667 25.8333V23.75H16.6667V25.8333C16.6667 26.5233 17.2267 27.0833 17.9167 27.0833C18.6067 27.0833 19.1667 26.5233 19.1667 25.8333V20.8333C19.1667 18.7617 17.4883 17.0833 15.4167 17.0833C13.345 17.0833 11.6667 18.7617 11.6667 20.8333V25.8333ZM16.6667 21.25H14.1667V20.8333C14.1667 20.1433 14.7267 19.5833 15.4167 19.5833C16.1067 19.5833 16.6667 20.1433 16.6667 20.8333V21.25ZM20.8333 25.8333C20.8333 26.5233 21.3933 27.0833 22.0833 27.0833H24.5833C26.655 27.0833 28.3333 25.405 28.3333 23.3333V20.8333C28.3333 18.7617 26.655 17.0833 24.5833 17.0833H22.0833C21.3933 17.0833 20.8333 17.6433 20.8333 18.3333V25.8333ZM23.3333 24.5833V19.5833H24.5833C25.2733 19.5833 25.8333 20.1433 25.8333 20.8333V23.3333C25.8333 24.0233 25.2733 24.5833 24.5833 24.5833H23.3333Z" fill="#EBEBEB"/>
<path fill-rule="evenodd" clip-rule="evenodd" d="M13.9995 4.0835C13.5862 3.53183 13.6978 2.74683 14.2495 2.3335C14.8012 1.92016 15.5862 2.03183 15.9995 2.5835L19.9995 7.91683L23.9995 2.5835C24.4128 2.03183 25.1978 1.92016 25.7495 2.3335C26.3012 2.74683 26.4128 3.53183 25.9995 4.0835L20.9995 10.7502C20.7628 11.0652 20.3928 11.2502 19.9995 11.2502C19.6062 11.2502 19.2362 11.0652 18.9995 10.7502L13.9995 4.0835Z" fill="#EBEBEB"/>
<path fill-rule="evenodd" clip-rule="evenodd" d="M30.418 36.6665C30.418 37.3565 29.858 37.9165 29.168 37.9165C28.478 37.9165 27.918 37.3565 27.918 36.6665V34.1665C27.918 33.4765 28.478 32.9165 29.168 32.9165C29.858 32.9165 30.418 33.4765 30.418 34.1665V36.6665Z" fill="#EBEBEB"/>
<path fill-rule="evenodd" clip-rule="evenodd" d="M12.082 36.6665C12.082 37.3565 11.522 37.9165 10.832 37.9165C10.142 37.9165 9.58203 37.3565 9.58203 36.6665V34.1665C9.58203 33.4765 10.142 32.9165 10.832 32.9165C11.522 32.9165 12.082 33.4765 12.082 34.1665V36.6665Z" fill="#EBEBEB"/>
</svg>
