<svg width="48" height="48" viewBox="0 0 48 48" fill="none" xmlns="http://www.w3.org/2000/svg">
<path d="M42.8887 13.083C42.8349 11.8991 42.8349 10.7691 42.8349 9.63901C42.8349 8.72422 42.1354 8.02466 41.2206 8.02466C34.4941 8.02466 29.382 6.08744 25.1309 1.94395C24.4852 1.35202 23.5165 1.35202 22.8708 1.94395C18.6197 6.08744 13.5076 8.02466 6.78112 8.02466C5.86632 8.02466 5.16677 8.72422 5.16677 9.63901C5.16677 10.7691 5.16677 11.8991 5.11296 13.083C4.89771 24.3834 4.57484 39.8812 23.4627 46.3924L24.0008 46.5L24.539 46.3924C43.373 39.8812 43.104 24.4372 42.8887 13.083ZM22.7094 28.7422C22.3865 29.0112 22.0098 29.1726 21.5793 29.1726H21.5255C21.095 29.1726 20.6645 28.9574 20.3955 28.6345L15.391 23.0919L17.8125 20.9395L21.7408 25.2982L30.4583 17.0112L32.6645 19.3789L22.7094 28.7422Z" fill="#EEEEEE"/>
</svg>
