<svg width="48" height="48" viewBox="0 0 48 48" fill="none" xmlns="http://www.w3.org/2000/svg">
<path d="M45.6361 40.0466L37.9849 32.3954C37.4176 31.8281 36.4978 31.8281 35.9305 32.3954L32.5129 28.9778C34.8073 25.9058 35.9544 22.2434 35.9544 18.581C35.9544 14.1266 34.2553 9.67216 30.8713 6.28339C23.8025 -0.780322 12.1196 -0.482125 5.44587 7.17798C-0.219233 13.6804 -0.201403 23.5433 5.48421 30.0278C8.95286 33.9838 13.7661 35.9618 18.5736 35.9618C22.2361 35.9618 25.8984 34.8146 28.9705 32.5202L32.3881 35.9378C31.8207 36.5051 31.8207 37.4249 32.388 37.9922L39.9428 45.547C40.655 46.2592 41.5914 46.7357 42.5969 46.7934C43.7456 46.8593 44.832 46.4423 45.6361 45.6434C47.1769 44.0978 47.1769 41.5874 45.6361 40.0466ZM28.3465 28.3538C22.9608 33.7394 14.1913 33.7442 8.80085 28.3538C3.41046 22.9682 3.41046 14.1986 8.80085 8.8082C11.4936 6.1106 15.0361 4.76658 18.5736 4.76658C22.1161 4.76658 25.6536 6.1106 28.3465 8.8082C33.7369 14.1986 33.7369 22.9682 28.3465 28.3538Z" fill="#EEEEEE"/>
<path d="M24.2503 14.2939H26.9169C27.3017 14.2939 27.6137 14.6059 27.6137 14.9907V25.7013C27.6137 26.0862 27.3017 26.3981 26.9169 26.3981H24.2503C23.8654 26.3981 23.5535 26.0862 23.5535 25.7013V14.9907C23.5535 14.6059 23.8654 14.2939 24.2503 14.2939Z" fill="#EEEEEE"/>
<path d="M10.2305 19.5444H12.8972C13.282 19.5444 13.594 19.8564 13.594 20.2412V25.7014C13.594 26.0863 13.282 26.3982 12.8972 26.3982H10.2305C9.84565 26.3982 9.53369 26.0863 9.53369 25.7014V20.2412C9.53369 19.8564 9.84565 19.5444 10.2305 19.5444Z" fill="#EEEEEE"/>
<path d="M17.2427 10.7627H19.9046C20.2894 10.7627 20.6014 11.0747 20.6014 11.4595V25.7012C20.6014 26.086 20.2894 26.398 19.9046 26.398H17.2427C16.8579 26.398 16.5459 26.086 16.5459 25.7012V11.4595C16.5459 11.0747 16.8579 10.7627 17.2427 10.7627Z" fill="#EEEEEE"/>
</svg>
