<svg width="54" height="54" viewBox="0 0 54 54" fill="none" xmlns="http://www.w3.org/2000/svg">
<path d="M16.403 34.2009C18.4879 34.2009 20.1781 35.8911 20.1781 37.976V46.6049C20.1781 48.6898 18.4879 50.38 16.403 50.38H7.77414C5.6892 50.38 3.99902 48.6898 3.99902 46.6049V37.976C3.99902 35.8911 5.6892 34.2009 7.77414 34.2009H16.403Z" fill="#EBEBEB"/>
<path d="M46.6039 34.2009C48.6888 34.2009 50.379 35.8911 50.379 37.976V46.6049C50.379 48.6898 48.6888 50.38 46.6039 50.38H37.9751C35.8901 50.38 34.2 48.6898 34.2 46.6049V37.976C34.2 35.8911 35.8901 34.2009 37.9751 34.2009H46.6039Z" fill="#EBEBEB"/>
<path d="M31.5034 4C33.5884 4 35.2786 5.69018 35.2786 7.77512V16.404C35.2786 18.4889 33.5884 20.1791 31.5034 20.1791H28.8069V25.5721H40.1323C41.1332 25.5732 42.093 25.9711 42.8007 26.6788C43.5084 27.3865 43.9063 28.3463 43.9074 29.3472V31.5044C43.9074 31.9335 43.7371 32.3451 43.4336 32.6486C43.1302 32.952 42.7186 33.1223 42.2895 33.1223C41.8604 33.1223 41.4488 32.952 41.1453 32.6486C40.8419 32.3451 40.6716 31.9335 40.6716 31.5044V29.3472C40.6716 29.2042 40.6145 29.0673 40.5134 28.9661C40.4122 28.865 40.2753 28.8079 40.1323 28.8079H14.2458C14.1027 28.8079 13.9658 28.865 13.8647 28.9661C13.7636 29.0673 13.7065 29.2042 13.7065 29.3472V31.5044C13.7065 31.9335 13.5361 32.3451 13.2327 32.6486C12.9293 32.952 12.5177 33.1223 12.0886 33.1223C11.6595 33.1223 11.2478 32.952 10.9444 32.6486C10.641 32.3451 10.4707 31.9335 10.4707 31.5044V29.3472C10.4718 28.3463 10.8696 27.3865 11.5773 26.6788C12.2851 25.9711 13.2449 25.5732 14.2458 25.5721H25.5711V20.1791H22.8746C20.7897 20.1791 19.0995 18.4889 19.0995 16.404V7.77512C19.0995 5.69018 20.7897 4 22.8746 4H31.5034Z" fill="#EBEBEB"/>
</svg>
