<svg width="32" height="32" viewBox="0 0 32 32" fill="none" xmlns="http://www.w3.org/2000/svg">
<rect width="32" height="32" rx="16" fill="#D8D8D8"/>
<g clip-path="url(#clip0_144_2632)">
<path d="M24.0175 12.3545C23.8331 11.669 23.2927 11.1287 22.6073 10.9441C21.3553 10.6016 16.347 10.6016 16.347 10.6016C16.347 10.6016 11.3389 10.6016 10.0868 10.9312C9.41465 11.1155 8.86104 11.6691 8.67666 12.3545C8.34717 13.6064 8.34717 16.2028 8.34717 16.2028C8.34717 16.2028 8.34717 18.8123 8.67666 20.0512C8.86123 20.7365 9.40146 21.2769 10.0869 21.4614C11.3521 21.8041 16.3472 21.8041 16.3472 21.8041C16.3472 21.8041 21.3553 21.8041 22.6073 21.4745C23.2928 21.29 23.8331 20.7497 24.0177 20.0644C24.3471 18.8123 24.3471 16.216 24.3471 16.216C24.3471 16.216 24.3603 13.6064 24.0175 12.3545ZM14.7524 18.6015V13.8042L18.9171 16.2028L14.7524 18.6015Z" fill="#212121"/>
</g>
<defs>
<clipPath id="clip0_144_2632">
<rect width="17.0667" height="17.0667" fill="white" transform="translate(7.82227 7.82227)"/>
</clipPath>
</defs>
</svg>
