<svg width="32" height="32" viewBox="0 0 32 32" fill="none" xmlns="http://www.w3.org/2000/svg">
<g clip-path="url(#clip0_108_2)">
<path d="M1 5.66078C1 5.50072 1.121 5.37097 1.27027 5.37097H16.1351C16.2844 5.37097 16.4054 5.50072 16.4054 5.66078V13.7756C16.4054 13.9357 16.2844 14.0655 16.1351 14.0655H1.27027C1.121 14.0655 1 13.9357 1 13.7756V5.66078Z" fill="url(#paint0_linear_108_2)"/>
<path d="M15.5946 19.2822C15.5946 19.1221 15.7156 18.9923 15.8649 18.9923H30.7297C30.879 18.9923 31 19.1221 31 19.2822V27.397C31 27.5571 30.879 27.6868 30.7297 27.6868H15.8649C15.7156 27.6868 15.5946 27.5571 15.5946 27.397V19.2822Z" fill="url(#paint1_linear_108_2)"/>
<path d="M18.1162 5.72028C18.0705 5.54118 18.1914 5.36283 18.3644 5.35427L25.4848 5.00187C26.2561 4.9637 26.9455 5.51395 27.1328 6.31717L28.6856 12.9777C28.8568 13.7119 28.5654 14.4805 27.9651 14.8785L21.8479 18.9335C21.6944 19.0352 21.4928 18.9501 21.4451 18.7635L18.1162 5.72028Z" fill="url(#paint2_linear_108_2)"/>
<path d="M14.0338 27.4778C14.0753 27.658 13.9503 27.8331 13.7771 27.837L6.65079 27.9996C5.87886 28.0172 5.2024 27.4488 5.03381 26.6408L3.63582 19.941C3.48171 19.2024 3.79079 18.4418 4.40017 18.0599L10.6094 14.1692C10.7652 14.0716 10.9648 14.162 11.0081 14.3499L12.5209 20.9138L14.0338 27.4778Z" fill="url(#paint3_linear_108_2)"/>
</g>
<defs>
<linearGradient id="paint0_linear_108_2" x1="31" y1="16.5" x2="1" y2="16.5" gradientUnits="userSpaceOnUse">
<stop stop-color="#694DFF"/>
<stop offset="1" stop-color="#2DC2FF"/>
</linearGradient>
<linearGradient id="paint1_linear_108_2" x1="31" y1="16.5" x2="1" y2="16.5" gradientUnits="userSpaceOnUse">
<stop stop-color="#694DFF"/>
<stop offset="1" stop-color="#2DC2FF"/>
</linearGradient>
<linearGradient id="paint2_linear_108_2" x1="31" y1="16.5" x2="1" y2="16.5" gradientUnits="userSpaceOnUse">
<stop stop-color="#694DFF"/>
<stop offset="1" stop-color="#2DC2FF"/>
</linearGradient>
<linearGradient id="paint3_linear_108_2" x1="31" y1="16.5" x2="1" y2="16.5" gradientUnits="userSpaceOnUse">
<stop stop-color="#694DFF"/>
<stop offset="1" stop-color="#2DC2FF"/>
</linearGradient>
<clipPath id="clip0_108_2">
<rect width="32" height="32" fill="white"/>
</clipPath>
</defs>
</svg>
